<svg xmlns="http://www.w3.org/2000/svg" xmlns:xlink="http://www.w3.org/1999/xlink" width="592" height="492" viewBox="0 0 592 492">
  <defs>
    <clipPath id="clip-Web_1920_1">
      <rect width="592" height="492"/>
    </clipPath>
  </defs>
  <g id="Web_1920_1" data-name="Web 1920 – 1" clip-path="url(#clip-Web_1920_1)">
    <g id="Group_1" data-name="Group 1" transform="translate(-377 -52)">
      <g id="Group_2" data-name="Group 2">
        <path id="Path_3" data-name="Path 3" d="M14.782,8.31c5.443,0,12.481,17.086,19.53,18.03,14.552,1.949,32.3-8.14,32.3,1.914,0,14.635-65.546,77.843-82.936,77.843S-2.609,8.31,14.782,8.31Z" transform="translate(588.635 219)" fill="#e6cb8c"/>
      </g>
      <g id="Path_1" data-name="Path 1" transform="matrix(0.588, -0.809, 0.809, 0.588, 540.215, 307.144)" fill="none">
        <path d="M152.986-14.91c-1.693,8.639-2.392,74.883-2.332,75.222.7,4.036-8.983,2.268-22.625,2.268C57.321,62.58,0,49,0,32.251S154.2-21.036,152.986-14.91Z" stroke="none"/>
        <path d="M 148.5571136474609 -11.48770141601562 C 143.3585510253906 -11.05010604858398 133.4109802246094 -9.297172546386719 121.0113830566406 -6.614158630371094 C 105.6346588134766 -3.286975860595703 88.14656829833984 1.077136993408203 71.76854705810547 5.674228668212891 C 52.98613739013672 10.94622802734375 36.83779907226562 16.19816017150879 25.06929016113281 20.86220550537109 C 18.52093505859375 23.45745658874512 13.32472229003906 25.86872863769531 9.625015258789062 28.0290470123291 C 5.250198364257812 30.58359146118164 4.2080078125 32.08400344848633 4.005874633789062 32.44436645507812 C 4.06744384765625 33.46233367919922 4.612396240234375 34.57276153564453 5.62811279296875 35.74859237670898 C 7.005401611328125 37.34300231933594 9.154525756835938 38.9639778137207 12.01577758789062 40.56645584106445 C 15.02334594726562 42.25088882446289 18.78254699707031 43.88836669921875 23.18898010253906 45.43343353271484 C 27.63786315917969 46.99338912963867 32.76265716552734 48.4640007019043 38.42099761962891 49.80438995361328 C 50.00731658935547 52.54902648925781 63.52326965332031 54.706298828125 78.5933837890625 56.21625137329102 C 94.24552154541016 57.78450012207031 110.8782043457031 58.57968139648438 128.0294342041016 58.57968139648438 C 131.6591796875 58.57968139648438 134.9875946044922 58.70134353637695 137.9242095947266 58.80868530273438 C 140.2231292724609 58.89270782470703 142.2085723876953 58.96527481079102 143.8982238769531 58.96527481079102 C 145.1724395751953 58.96527481079102 146.0515441894531 58.92011260986328 146.6543731689453 58.86262893676758 C 146.6574859619141 58.44681549072266 146.6620483398438 57.93532562255859 146.6677093505859 57.30095672607422 C 146.6863250732422 55.21427536010742 146.7173919677734 52.4715690612793 146.7551574707031 49.57807159423828 C 146.8150939941406 44.98648071289062 146.9477996826172 35.78231811523438 147.1632080078125 25.72772979736328 C 147.382568359375 15.48850250244141 147.6311340332031 6.925750732421875 147.9019775390625 0.27734375 C 148.0503997802734 -3.365772247314453 148.2613525390625 -7.964229583740234 148.5571136474609 -11.48770141601562 M 150.7048950195312 -15.59514999389648 C 152.2739410400391 -15.59514999389648 153.0784301757812 -15.37622451782227 152.9859161376953 -14.91038513183594 C 151.2925872802734 -6.270977020263672 150.5934600830078 59.9728889465332 150.6542663574219 60.31182098388672 C 151.0289459228516 62.46280670166016 148.4515686035156 62.96527481079102 143.8982238769531 62.96527481079102 C 139.9080657958984 62.96527481079102 134.4007568359375 62.57968139648438 128.0294342041016 62.57968139648438 C 57.32074737548828 62.57968139648438 0 49.00113677978516 0 32.25113677978516 C 0 16.77497291564941 131.6421051025391 -15.59514999389648 150.7048950195312 -15.59514999389648 Z" stroke="none"/>
      </g>
      <line id="Line_1" data-name="Line 1" x1="77" y2="121" transform="translate(492.5 324.5)" fill="none" stroke="#000" stroke-width="4"/>
      <g id="Path_2" data-name="Path 2" transform="matrix(0.588, -0.809, 0.809, 0.588, 540.215, 307.144)" fill="rgba(255,255,255,0)">
        <path d="M 143.8983001708984 60.96529006958008 C 142.1720886230469 60.96529006958008 140.1697235107422 60.8921012878418 137.8511962890625 60.80735397338867 C 134.9316864013672 60.70064544677734 131.6226501464844 60.57968521118164 128.0294342041016 60.57968521118164 C 110.811897277832 60.57968521118164 94.11210632324219 59.78116607666016 78.39400482177734 58.20629119873047 C 63.23610687255859 56.68753814697266 49.63212585449219 54.51551818847656 37.95998001098633 51.75051879882812 C 32.23400115966797 50.39410400390625 27.04166793823242 48.90372848510742 22.52718925476074 47.32077026367188 C 18.0119800567627 45.7375602722168 14.14662647247314 44.05216598510742 11.03848075866699 42.3114128112793 C 6.915168285369873 40.00208282470703 2.000001668930054 36.38214492797852 2.000001668930054 32.25112152099609 C 2.000001668930054 31.9655818939209 2.230668306350708 30.39112281799316 6.784460067749023 27.42826843261719 C 10.16085624694824 25.23147773742676 15.15535545349121 22.76426887512207 21.6292724609375 20.09514427185059 C 33.1608772277832 15.34078979492188 49.45514678955078 9.930206298828125 68.75048065185547 4.448289394378662 C 85.47579193115234 -0.3034812211990356 103.5136871337891 -4.845626831054688 119.5413589477539 -8.341460227966309 C 134.8490905761719 -11.68025207519531 146.2077789306641 -13.59516906738281 150.7048950195312 -13.59516906738281 C 150.7282409667969 -13.59516906738281 150.7511596679688 -13.59511280059814 150.773681640625 -13.59500503540039 C 150.1493225097656 -8.237763404846191 149.6083374023438 4.972466468811035 149.1627502441406 25.77056121826172 C 148.9474945068359 35.81787109375 148.8148803710938 45.01570510864258 148.7549743652344 49.60418701171875 C 148.6420135498047 58.25780487060547 148.6430358886719 60.01823043823242 148.6666717529297 60.48158645629883 C 148.4841003417969 60.5607795715332 148.1300048828125 60.67692565917969 147.4875183105469 60.77339553833008 C 146.6275787353516 60.90251922607422 145.4535217285156 60.96529006958008 143.8983001708984 60.96529006958008 Z" stroke="none"/>
        <path d="M 148.5571136474609 -11.48770141601562 C 143.3585510253906 -11.05010604858398 133.4109802246094 -9.297172546386719 121.0113830566406 -6.614158630371094 C 105.6346588134766 -3.286975860595703 88.14656829833984 1.077136993408203 71.76854705810547 5.674228668212891 C 52.98613739013672 10.94622802734375 36.83779907226562 16.19816017150879 25.06929016113281 20.86220550537109 C 18.52093505859375 23.45745658874512 13.32472229003906 25.86872863769531 9.625015258789062 28.0290470123291 C 5.250198364257812 30.58359146118164 4.2080078125 32.08400344848633 4.005874633789062 32.44436645507812 C 4.06744384765625 33.46233367919922 4.612396240234375 34.57276153564453 5.62811279296875 35.74859237670898 C 7.005401611328125 37.34300231933594 9.154525756835938 38.9639778137207 12.01577758789062 40.56645584106445 C 15.02334594726562 42.25088882446289 18.78254699707031 43.88836669921875 23.18898010253906 45.43343353271484 C 27.63786315917969 46.99338912963867 32.76265716552734 48.4640007019043 38.42099761962891 49.80438995361328 C 50.00731658935547 52.54902648925781 63.52326965332031 54.706298828125 78.5933837890625 56.21625137329102 C 94.24552154541016 57.78450012207031 110.8782043457031 58.57968139648438 128.0294342041016 58.57968139648438 C 131.6591796875 58.57968139648438 134.9875946044922 58.70134353637695 137.9242095947266 58.80868530273438 C 140.2231292724609 58.89270782470703 142.2085723876953 58.96527481079102 143.8982238769531 58.96527481079102 C 145.1724395751953 58.96527481079102 146.0515441894531 58.92011260986328 146.6543731689453 58.86262893676758 C 146.6574859619141 58.44681549072266 146.6620483398438 57.93532562255859 146.6677093505859 57.30095672607422 C 146.6863250732422 55.21427536010742 146.7173919677734 52.4715690612793 146.7551574707031 49.57807159423828 C 146.8150939941406 44.98648071289062 146.9477996826172 35.78231811523438 147.1632080078125 25.72772979736328 C 147.382568359375 15.48850250244141 147.6311340332031 6.925750732421875 147.9019775390625 0.27734375 C 148.0503997802734 -3.365772247314453 148.2613525390625 -7.964229583740234 148.5571136474609 -11.48770141601562 M 150.7048950195312 -15.59514999389648 C 152.2739410400391 -15.59514999389648 153.0784301757812 -15.37622451782227 152.9859161376953 -14.91038513183594 C 151.2925872802734 -6.270977020263672 150.5934600830078 59.9728889465332 150.6542663574219 60.31182098388672 C 151.0289459228516 62.46280670166016 148.4515686035156 62.96527481079102 143.8982238769531 62.96527481079102 C 139.9080657958984 62.96527481079102 134.4007568359375 62.57968139648438 128.0294342041016 62.57968139648438 C 57.32074737548828 62.57968139648438 0 49.00113677978516 0 32.25113677978516 C 0 16.77497291564941 131.6421051025391 -15.59514999389648 150.7048950195312 -15.59514999389648 Z" stroke="none"/>
      </g>
    </g>
    <g id="Group_1-2" data-name="Group 1" transform="translate(294.5 122.204)">
      <g id="Group_3" data-name="Group 3">
        <path id="Path_3-2" data-name="Path 3" d="M30.39,8.31c-5.443,0-12.481,17.086-19.53,18.03-14.552,1.949-32.3-8.14-32.3,1.914,0,14.635,65.546,77.843,82.936,77.843S47.781,8.31,30.39,8.31Z" transform="translate(47.275 44.796)" fill="#e6cb8c"/>
      </g>
      <g id="Path_1-2" data-name="Path 1" transform="matrix(-0.588, -0.809, 0.809, -0.588, 89.927, 169.951)" fill="none">
        <path d="M152.986,77.876c-1.693-8.639-2.392-74.883-2.332-75.222.7-4.036-8.983-2.268-22.625-2.268C57.321.386,0,13.964,0,30.714S154.2,84,152.986,77.876Z" stroke="none"/>
        <path d="M 148.5558166503906 74.45263671875 C 148.3574371337891 72.06078338623047 148.1351776123047 68.41173553466797 147.9019927978516 62.68792343139648 C 147.6311340332031 56.03951644897461 147.3825836181641 47.47678756713867 147.1632232666016 37.2375602722168 C 146.9477996826172 27.18294715881348 146.8150939941406 17.97878837585449 146.7551574707031 13.38719749450684 C 146.7173919677734 10.49372005462646 146.6863250732422 7.751015663146973 146.6677093505859 5.664310932159424 C 146.6620483398438 5.029938220977783 146.6574859619141 4.518457412719727 146.6543731689453 4.102638721466064 C 146.0515441894531 4.045153617858887 145.1724243164062 3.999992847442627 143.8982086181641 3.999992847442627 C 142.2085418701172 3.999992847442627 140.2231140136719 4.072561264038086 137.9241638183594 4.156583786010742 C 134.9875640869141 4.263924598693848 131.6591796875 4.385583877563477 128.0294342041016 4.385583877563477 C 110.8782043457031 4.385583877563477 94.24552154541016 5.180765628814697 78.5933837890625 6.749015808105469 C 63.52327346801758 8.258970260620117 50.00731658935547 10.4162425994873 38.42100143432617 13.16090202331543 C 32.76265716552734 14.50128841400146 27.63786315917969 15.97187900543213 23.1889762878418 17.53183364868164 C 18.78254508972168 19.07690238952637 15.02334117889404 20.71440124511719 12.01577281951904 22.39883422851562 C 9.154545783996582 24.00131034851074 7.005408763885498 25.62228775024414 5.628113269805908 27.21669769287109 C 4.612392425537109 28.39252853393555 4.067440509796143 29.50295448303223 4.005881786346436 30.52092170715332 C 4.208013534545898 30.88127326965332 5.250218868255615 32.38164520263672 9.625045776367188 34.93613052368164 C 13.32474994659424 37.09640121459961 18.52095413208008 39.50760650634766 25.0693416595459 42.10276412963867 C 36.83761215209961 46.76658248901367 52.98595428466797 52.01833343505859 71.76861572265625 57.29024124145508 C 88.14595794677734 61.88703918457031 105.6340713500977 66.25112915039062 121.0114288330078 69.57855987548828 C 133.4091949462891 72.26125335693359 143.3560485839844 74.01435089111328 148.5558166503906 74.45263671875 M 150.7049102783203 78.56044006347656 C 131.6421203613281 78.55831146240234 -1.442649164573595e-07 46.1903190612793 -1.442649164573595e-07 30.71415138244629 C -1.442649164573595e-07 13.96415233612061 57.32075119018555 0.3855837881565094 128.0294342041016 0.3855837881565094 C 134.4007568359375 0.3855837881565094 139.9080200195312 -5.776145371783059e-06 143.898193359375 -5.776145371783059e-06 C 148.4515380859375 -5.776145371783059e-06 151.0289611816406 0.502471923828125 150.6542663574219 2.653470277786255 C 150.5934600830078 2.992379188537598 151.2926177978516 69.23624420166016 152.9859161376953 77.87567138671875 C 153.0784301757812 78.34151458740234 152.2739562988281 78.56061553955078 150.7049102783203 78.56044006347656 Z" stroke="none"/>
      </g>
      <line id="Line_1-2" data-name="Line 1" x2="77" y2="121" transform="translate(111.582 150.296)" fill="none" stroke="#000" stroke-width="4"/>
      <g id="Path_2-2" data-name="Path 2" transform="matrix(-0.588, -0.809, 0.809, -0.588, 89.927, 169.951)" fill="rgba(255,255,255,0)">
        <path d="M 150.7064819335938 76.56045532226562 C 150.7059783935547 76.56045532226562 150.7056274414062 76.56045532226562 150.7051239013672 76.56045532226562 C 146.2077026367188 76.55995941162109 134.8489379882812 74.64472961425781 119.541374206543 71.30585479736328 C 103.5130004882812 67.80975341796875 85.47512817382812 63.26764678955078 68.75048065185547 58.51618957519531 C 49.45491790771484 53.03435516357422 33.16064834594727 47.62391662597656 21.62925148010254 42.86981201171875 C 15.15533542633057 40.20079040527344 10.16081428527832 37.73362731933594 6.784439086914062 35.53689575195312 C 2.230668306350708 32.57412719726562 2.000001668930054 30.99968719482422 2.000001668930054 30.71414566040039 C 2.000001668930054 26.58312606811523 6.915168285369873 22.96318817138672 11.03848075866699 20.65387535095215 C 14.14662647247314 18.91310501098633 18.0119800567627 17.22770881652832 22.52718925476074 15.64450073242188 C 27.04166793823242 14.06154251098633 32.23400115966797 12.5711669921875 37.95998001098633 11.21475028991699 C 49.63214874267578 8.449770927429199 63.23610687255859 6.277729511260986 78.39400482177734 4.758979797363281 C 94.11212921142578 3.184104681015015 110.811897277832 2.385583877563477 128.0294342041016 2.385583877563477 C 131.6226501464844 2.385583877563477 134.9316711425781 2.264646291732788 137.8511505126953 2.157917022705078 C 140.1696624755859 2.073188066482544 142.1720275878906 2.000000476837158 143.8982086181641 2.000000476837158 C 145.4534606933594 2.000000476837158 146.6275482177734 2.062771320343018 147.4875030517578 2.191896200180054 C 148.1299743652344 2.288363695144653 148.4841003417969 2.404513120651245 148.6666717529297 2.483706951141357 C 148.6430358886719 2.947062253952026 148.6420135498047 4.707487106323242 148.7549743652344 13.36110496520996 C 148.8148803710938 17.94958305358887 148.9474945068359 27.14741706848145 149.1627502441406 37.19472885131836 C 149.6083374023438 57.99282455444336 150.1493225097656 71.20306396484375 150.773681640625 76.560302734375 C 150.7516937255859 76.56040191650391 150.729248046875 76.56045532226562 150.7064819335938 76.56045532226562 Z" stroke="none"/>
        <path d="M 148.5558166503906 74.45263671875 C 148.3574371337891 72.06078338623047 148.1351776123047 68.41173553466797 147.9019927978516 62.68792343139648 C 147.6311340332031 56.03951644897461 147.3825836181641 47.47678756713867 147.1632232666016 37.2375602722168 C 146.9477996826172 27.18294715881348 146.8150939941406 17.97878837585449 146.7551574707031 13.38719749450684 C 146.7173919677734 10.49372005462646 146.6863250732422 7.751015663146973 146.6677093505859 5.664310932159424 C 146.6620483398438 5.029938220977783 146.6574859619141 4.518457412719727 146.6543731689453 4.102638721466064 C 146.0515441894531 4.045153617858887 145.1724243164062 3.999992847442627 143.8982086181641 3.999992847442627 C 142.2085418701172 3.999992847442627 140.2231140136719 4.072561264038086 137.9241638183594 4.156583786010742 C 134.9875640869141 4.263924598693848 131.6591796875 4.385583877563477 128.0294342041016 4.385583877563477 C 110.8782043457031 4.385583877563477 94.24552154541016 5.180765628814697 78.5933837890625 6.749015808105469 C 63.52327346801758 8.258970260620117 50.00731658935547 10.4162425994873 38.42100143432617 13.16090202331543 C 32.76265716552734 14.50128841400146 27.63786315917969 15.97187900543213 23.1889762878418 17.53183364868164 C 18.78254508972168 19.07690238952637 15.02334117889404 20.71440124511719 12.01577281951904 22.39883422851562 C 9.154545783996582 24.00131034851074 7.005408763885498 25.62228775024414 5.628113269805908 27.21669769287109 C 4.612392425537109 28.39252853393555 4.067440509796143 29.50295448303223 4.005881786346436 30.52092170715332 C 4.208013534545898 30.88127326965332 5.250218868255615 32.38164520263672 9.625045776367188 34.93613052368164 C 13.32474994659424 37.09640121459961 18.52095413208008 39.50760650634766 25.0693416595459 42.10276412963867 C 36.83761215209961 46.76658248901367 52.98595428466797 52.01833343505859 71.76861572265625 57.29024124145508 C 88.14595794677734 61.88703918457031 105.6340713500977 66.25112915039062 121.0114288330078 69.57855987548828 C 133.4091949462891 72.26125335693359 143.3560485839844 74.01435089111328 148.5558166503906 74.45263671875 M 150.7049102783203 78.56044006347656 C 131.6421203613281 78.55831146240234 -1.442649164573595e-07 46.1903190612793 -1.442649164573595e-07 30.71415138244629 C -1.442649164573595e-07 13.96415233612061 57.32075119018555 0.3855837881565094 128.0294342041016 0.3855837881565094 C 134.4007568359375 0.3855837881565094 139.9080200195312 -5.776145371783059e-06 143.898193359375 -5.776145371783059e-06 C 148.4515380859375 -5.776145371783059e-06 151.0289611816406 0.502471923828125 150.6542663574219 2.653470277786255 C 150.5934600830078 2.992379188537598 151.2926177978516 69.23624420166016 152.9859161376953 77.87567138671875 C 153.0784301757812 78.34151458740234 152.2739562988281 78.56061553955078 150.7049102783203 78.56044006347656 Z" stroke="none"/>
      </g>
    </g>
    <g id="Group_5" data-name="Group 5" transform="translate(-377 -52)">
      <g id="Group_4" data-name="Group 4">
        <ellipse id="Ellipse_1" data-name="Ellipse 1" cx="13" cy="13.5" rx="13" ry="13.5" transform="translate(639 160)" fill="rgba(230,203,140,0.59)"/>
        <ellipse id="Ellipse_2" data-name="Ellipse 2" cx="13" cy="13.5" rx="13" ry="13.5" transform="translate(681 174)" fill="rgba(230,203,140,0.59)"/>
        <ellipse id="Ellipse_3" data-name="Ellipse 3" cx="13" cy="13.5" rx="13" ry="13.5" transform="translate(694 127)" fill="rgba(230,203,140,0.59)"/>
        <ellipse id="Ellipse_4" data-name="Ellipse 4" cx="13" cy="13.5" rx="13" ry="13.5" transform="translate(626 113)" fill="rgba(230,203,140,0.59)"/>
        <line id="Line_2" data-name="Line 2" x2="36.535" y2="27.265" transform="translate(657.5 209.235)" fill="none" stroke="#555130" stroke-width="1"/>
        <line id="Line_3" data-name="Line 3" x1="36.535" y2="27.265" transform="translate(657.5 209.235)" fill="none" stroke="#555130" stroke-width="1"/>
        <line id="Line_4" data-name="Line 4" x1="36.535" y2="27.265" transform="translate(662.135 241.135) rotate(-90)" fill="none" stroke="#555130" stroke-width="1"/>
        <line id="Line_5" data-name="Line 5" x2="36.535" y2="27.265" transform="translate(662.135 241.135) rotate(-90)" fill="none" stroke="#555130" stroke-width="1"/>
        <line id="Line_6" data-name="Line 6" x2="36.535" y2="27.265" transform="translate(653.211 226.145) rotate(-45)" fill="none" stroke="#555130" stroke-width="1"/>
        <line id="Line_7" data-name="Line 7" x1="36.535" y2="27.265" transform="translate(653.211 226.145) rotate(-45)" fill="none" stroke="#555130" stroke-width="1"/>
        <line id="Line_8" data-name="Line 8" x1="36.535" y2="27.265" transform="translate(679.045 245.424) rotate(-135)" fill="none" stroke="#555130" stroke-width="1"/>
        <line id="Line_9" data-name="Line 9" x2="36.535" y2="27.265" transform="translate(679.045 245.424) rotate(-135)" fill="none" stroke="#555130" stroke-width="1"/>
      </g>
    </g>
  </g>
</svg>
